<?xml version="1.0" encoding="utf-8"?>
<!-- Generator: Adobe Illustrator 15.0.0, SVG Export Plug-In . SVG Version: 6.00 Build 0)  -->
<!DOCTYPE svg PUBLIC "-//W3C//DTD SVG 1.1//EN" "http://www.w3.org/Graphics/SVG/1.1/DTD/svg11.dtd">
<svg version="1.1" id="Слой_1" xmlns="http://www.w3.org/2000/svg" xmlns:xlink="http://www.w3.org/1999/xlink" x="0px" y="0px"
	 width="278px" height="43px" viewBox="0 0 278 43" style="enable-background:new 0 0 278 43;" xml:space="preserve">
<style type="text/css">
<![CDATA[
	.st0{fill:#B3FF66;}
	.st1{fill:#EEBEF1;}
	.st2{fill:#BDE0FF;}
	.st3{fill:#F1FF52;}
	.st4{fill:url(#SVGID_1_);}
	.st5{fill:url(#SVGID_2_);}
	.st6{fill:url(#SVGID_3_);}
	.st7{fill:url(#SVGID_4_);}
	.st8{fill:url(#SVGID_5_);}
	.st9{fill:url(#SVGID_6_);}
	.st10{fill:url(#SVGID_7_);}
	.st11{fill:url(#SVGID_8_);}
	.st12{fill:url(#SVGID_9_);}
	.st13{fill:#98FADD;}
	.st14{fill:#FFC0CB;}
	.st15{fill:#FFFFFF;}
	.st16{font-family:'Roboto-Light';}
	.st17{font-size:45;}
	.st18{fill:#D8C2FF;}
	.st19{font-family:'Roboto-Medium';}
	.st20{fill:#448956;}
]]>
</style>
<rect x="818.9" y="-299" class="st2" width="300" height="150"/>
<rect x="1138.9" y="-299" class="st2" width="300" height="150"/>
<rect x="1458.9" y="-299" class="st2" width="300" height="150"/>
<rect x="1778.9" y="-299" class="st2" width="300" height="150"/>
<rect x="2098.9" y="-299" class="st2" width="300" height="150"/>
<rect x="2418.9" y="-299" class="st2" width="300" height="150"/>
<rect x="2738.9" y="-299" class="st2" width="300" height="150"/>
<rect x="818.9" y="41" class="st1" width="300" height="150"/>
<rect x="1138.9" y="41" class="st1" width="300" height="150"/>
<rect x="1458.9" y="41" class="st1" width="300" height="150"/>
<rect x="1778.9" y="41" class="st1" width="300" height="150"/>
<rect x="2098.9" y="41" class="st1" width="300" height="150"/>
<rect x="2418.9" y="41" class="st1" width="300" height="150"/>
<rect x="2738.9" y="41" class="st1" width="300" height="150"/>
<rect x="818.9" y="381" class="st13" width="300" height="150"/>
<rect x="1138.9" y="381" class="st13" width="300" height="150"/>
<rect x="1458.9" y="381" class="st13" width="300" height="150"/>
<rect x="1778.9" y="381" class="st13" width="300" height="150"/>
<rect x="2098.9" y="381" class="st13" width="300" height="150"/>
<rect x="2418.9" y="381" class="st13" width="300" height="150"/>
<rect x="2738.9" y="381" class="st13" width="300" height="150"/>
<rect x="818.9" y="-129" class="st18" width="300" height="150"/>
<rect x="1138.9" y="-129" class="st18" width="300" height="150"/>
<rect x="1458.9" y="-129" class="st18" width="300" height="150"/>
<rect x="1778.9" y="-129" class="st18" width="300" height="150"/>
<rect x="2098.9" y="-129" class="st18" width="300" height="150"/>
<rect x="2418.9" y="-129" class="st18" width="300" height="150"/>
<rect x="2738.9" y="-129" class="st18" width="300" height="150"/>
<rect x="818.9" y="211" class="st14" width="300" height="150"/>
<rect x="1138.9" y="211" class="st14" width="300" height="150"/>
<rect x="1458.9" y="211" class="st14" width="300" height="150"/>
<rect x="1778.9" y="211" class="st14" width="300" height="150"/>
<rect x="2098.9" y="211" class="st14" width="300" height="150"/>
<rect x="2418.9" y="211" class="st14" width="300" height="150"/>
<rect x="2738.9" y="211" class="st14" width="300" height="150"/>
<rect x="818.9" y="551" class="st0" width="300" height="150"/>
<rect x="1138.9" y="551" class="st0" width="300" height="150"/>
<rect x="1458.9" y="551" class="st0" width="300" height="150"/>
<rect x="1778.9" y="551" class="st0" width="300" height="150"/>
<rect x="2098.9" y="551" class="st0" width="300" height="150"/>
<rect x="2418.9" y="551" class="st0" width="300" height="150"/>
<rect x="2738.9" y="551" class="st0" width="300" height="150"/>
<rect x="818.9" y="721" class="st3" width="300" height="150"/>
<rect x="1138.9" y="721" class="st3" width="300" height="150"/>
<rect x="1458.9" y="721" class="st3" width="300" height="150"/>
<rect x="1778.9" y="721" class="st3" width="300" height="150"/>
<text transform="matrix(1 0 0 1 862.5439 -210.8164)" class="st16 st17">SAMSUNG</text>
<text transform="matrix(1 0 0 1 1873.3667 -40.8159)" class="st16 st17">ASUS</text>
<text transform="matrix(1 0 0 1 1899.0854 -210.8164)" class="st16 st17">HP</text>
<text transform="matrix(1 0 0 1 1262.3374 -40.8164)" class="st16 st17">LG</text>
<text transform="matrix(1 0 0 1 2511.1689 -210.8164)" class="st16 st17">SONY</text>
<text transform="matrix(1 0 0 1 1537.6777 -210.8164)" class="st16 st17">EPSON</text>
<text transform="matrix(1 0 0 1 913.2896 -40.8164)" class="st16 st17">ACER</text>
<text transform="matrix(1 0 0 1 2173.0205 -210.8164)" class="st16 st17">CANON</text>
<text transform="matrix(1 0 0 1 1557.6182 -40.8164)" class="st16 st17">DELL</text>
<text transform="matrix(1 0 0 1 2804.2861 -210.8164)" class="st16 st17">LENOVO</text>
<text transform="matrix(1 0 0 1 1214.3491 -210.8159)" class="st16 st17">XIAOMI</text>
<text transform="matrix(0.8648 0 0 1 1215.9072 129.1836)" class="st16 st17">HITACHI</text>
<text transform="matrix(0.8648 0 0 1 1853.7886 272.1841)"><tspan x="0" y="0" class="st16 st17">ЧИСТАЯ</tspan><tspan x="9.4" y="54" class="st16 st17">ЛИНИЯ</tspan></text>
<text transform="matrix(0.8648 0 0 1 2168.7432 -40.8159)" class="st16 st17">PHILLIPS</text>
<text transform="matrix(0.8648 0 0 1 1848.9048 129.1836)" class="st16 st17">GORENIE</text>
<text transform="matrix(0.8648 0 0 1 1514.5386 102.1841)"><tspan x="0" y="0" class="st16 st17">HOTPOINT</tspan><tspan x="16.8" y="54" class="st16 st17">ARISTON</tspan></text>
<text transform="matrix(0.8648 0 0 1 908.6675 129.1836)" class="st16 st17">XEROX</text>
<text transform="matrix(1 0 0 1 2818.6924 -20.7573)" class="st16 st17">BOSH</text>
<text transform="matrix(1 0 0 1 2447.3174 -40.8159)" class="st16 st17">PANASONIC</text>
<text transform="matrix(0.8648 0 0 1 2816.2021 299.1836)" class="st16 st17">ARMANI</text>
<text transform="matrix(0.8648 0 0 1 2500.2295 299.1836)" class="st16 st17">LOREAL</text>
<text transform="matrix(0.8648 0 0 1 2494.9951 129.1836)" class="st16 st17">CHANEL</text>
<text transform="matrix(0.8648 0 0 1 1575.5845 299.1836)" class="st16 st17">YSL</text>
<text transform="matrix(0.8648 0 0 1 2186.2725 129.1836)" class="st16 st17">CANDY</text>
<text transform="matrix(0.8648 0 0 1 2207.9639 272.1841)"><tspan x="0" y="0" class="st16 st17">MAX</tspan><tspan x="-37" y="54" class="st16 st17">FACTOR</tspan></text>
<text transform="matrix(0.8648 0 0 1 907.1377 299.1836)" class="st16 st17">KENZO</text>
<text transform="matrix(0.8648 0 0 1 2845.4189 129.1836)" class="st16 st17">DIOR</text>
<text transform="matrix(0.8648 0 0 1 1238.644 299.1836)" class="st16 st17">DKNY</text>
<text transform="matrix(0.8648 0 0 1 2198.2451 469.1836)" class="st16 st17">PILOT</text>
<text transform="matrix(0.8648 0 0 1 2833.8936 469.1836)" class="st16 st17">VICHY</text>
<text transform="matrix(0.8648 0 0 1 1259.1191 469.1836)" class="st16 st17">BIC</text>
<text transform="matrix(0.8648 0 0 1 2494.6719 639.1836)" class="st16 st17">ЛАДОГА</text>
<text transform="matrix(0.8648 0 0 1 910.4155 442.1836)"><tspan x="0" y="0" class="st16 st17">FABER</tspan><tspan x="-24.4" y="54" class="st16 st17">CASTELL</tspan></text>
<text transform="matrix(0.8648 0 0 1 1538.1592 469.1836)" class="st16 st17">PARKER</text>
<text transform="matrix(0.8648 0 0 1 1887.2139 469.1836)" class="st16 st17">MAC</text>
<text transform="matrix(0.8648 0 0 1 2483.4609 442.1836)"><tspan x="0" y="0" class="st16 st17">LAROCHE</tspan><tspan x="28.8" y="54" class="st16 st17">POSAY</tspan></text>
<text transform="matrix(0.8648 0 0 1 1180.5146 782.1836)"><tspan x="0" y="0" class="st16 st17">БУМАЖНАЯ</tspan><tspan x="22.1" y="54" class="st16 st17">ФАБРИКА</tspan></text>
<text transform="matrix(0.8648 0 0 1 1890.5938 809.1836)" class="st16 st17">РЦБ</text>
<rect x="2227.9" y="796" class="st20" width="300" height="150"/>
<text transform="matrix(0.8648 0 0 1 2255.7256 884.1836)" class="st15 st19 st17">ВСЕ БРЕНДЫ</text>
<text transform="matrix(0.8648 0 0 1 931.6323 639.1836)" class="st16 st17">NYX</text>
<text transform="matrix(0.8648 0 0 1 1522.3965 782.1836)"><tspan x="0" y="0" class="st16 st17">СКРЕПКА</tspan><tspan x="-11.3" y="54" class="st16 st17">И КНОПКА</tspan></text>
<text transform="matrix(0.8648 0 0 1 2812.126 639.1836)" class="st16 st17">ГАВРИШ</text>
<text transform="matrix(0.8648 0 0 1 1861.8643 639.1836)" class="st16 st17">ГАММА</text>
<text transform="matrix(0.8648 0 0 1 2142.7959 639.1836)" class="st16 st17">KOH I NOOR</text>
<text transform="matrix(0.8648 0 0 1 1532.5244 639.1836)" class="st16 st17">ВОСХОД</text>
<text transform="matrix(0.8648 0 0 1 858.7002 809.1836)" class="st16 st17">SUPERSHOP</text>
<text transform="matrix(0.8648 0 0 1 1214.064 639.1836)" class="st16 st17">АЭЛИТА</text>
<g>
	<linearGradient id="SVGID_1_" gradientUnits="userSpaceOnUse" x1="5.5029" y1="21.8936" x2="257.4028" y2="22.6895">
		<stop  offset="0" style="stop-color:#000000"/>
		<stop  offset="3.253728e-002" style="stop-color:#030A07"/>
		<stop  offset="0.1914" style="stop-color:#123524"/>
		<stop  offset="0.3524" style="stop-color:#1E593C"/>
		<stop  offset="0.5136" style="stop-color:#27754E"/>
		<stop  offset="0.6749" style="stop-color:#2E895B"/>
		<stop  offset="0.8368" style="stop-color:#329563"/>
		<stop  offset="1" style="stop-color:#339966"/>
	</linearGradient>
	<path class="st4" d="M45.8,27.9c0-1.1-0.4-1.9-1.1-2.5c-0.7-0.6-2.1-1.2-4-1.7c-1.9-0.6-3.5-1.2-4.6-2c-2.2-1.4-3.3-3.2-3.3-5.4
		c0-1.9,0.8-3.6,2.4-4.8c1.6-1.3,3.6-1.9,6.2-1.9c1.7,0,3.2,0.3,4.5,0.9c1.3,0.6,2.4,1.5,3.1,2.6c0.8,1.1,1.1,2.4,1.1,3.8h-4.2
		c0-1.3-0.4-2.2-1.2-3c-0.8-0.7-1.9-1.1-3.4-1.1c-1.4,0-2.4,0.3-3.2,0.9c-0.8,0.6-1.1,1.4-1.1,2.5c0,0.9,0.4,1.6,1.2,2.2
		c0.8,0.6,2.2,1.2,4.1,1.7c1.9,0.6,3.4,1.2,4.5,1.9c1.1,0.7,2,1.5,2.5,2.5c0.5,0.9,0.8,2,0.8,3.2c0,2-0.8,3.6-2.3,4.8
		c-1.5,1.2-3.6,1.8-6.3,1.8c-1.7,0-3.4-0.3-4.8-1c-1.5-0.6-2.6-1.5-3.4-2.7c-0.8-1.1-1.2-2.5-1.2-4h4.2c0,1.4,0.5,2.4,1.4,3.2
		c0.9,0.8,2.2,1.1,3.9,1.1c1.5,0,2.6-0.3,3.3-0.9C45.5,29.6,45.8,28.8,45.8,27.9z"/>
	<linearGradient id="SVGID_2_" gradientUnits="userSpaceOnUse" x1="5.5024" y1="21.9702" x2="257.4023" y2="22.7661">
		<stop  offset="0" style="stop-color:#000000"/>
		<stop  offset="3.253728e-002" style="stop-color:#030A07"/>
		<stop  offset="0.1914" style="stop-color:#123524"/>
		<stop  offset="0.3524" style="stop-color:#1E593C"/>
		<stop  offset="0.5136" style="stop-color:#27754E"/>
		<stop  offset="0.6749" style="stop-color:#2E895B"/>
		<stop  offset="0.8368" style="stop-color:#329563"/>
		<stop  offset="1" style="stop-color:#339966"/>
	</linearGradient>
	<path class="st5" d="M74.1,9.9v16.2c0,2.6-0.8,4.6-2.5,6.1c-1.6,1.5-3.8,2.2-6.6,2.2c-2.8,0-5-0.7-6.6-2.2s-2.4-3.5-2.4-6.2V9.9
		h4.2v16.2c0,1.6,0.4,2.9,1.2,3.7c0.8,0.9,2,1.3,3.6,1.3c3.2,0,4.8-1.7,4.8-5.1v-16H74.1z"/>
	<linearGradient id="SVGID_3_" gradientUnits="userSpaceOnUse" x1="5.5034" y1="21.7524" x2="257.4033" y2="22.5483">
		<stop  offset="0" style="stop-color:#000000"/>
		<stop  offset="3.253728e-002" style="stop-color:#030A07"/>
		<stop  offset="0.1914" style="stop-color:#123524"/>
		<stop  offset="0.3524" style="stop-color:#1E593C"/>
		<stop  offset="0.5136" style="stop-color:#27754E"/>
		<stop  offset="0.6749" style="stop-color:#2E895B"/>
		<stop  offset="0.8368" style="stop-color:#329563"/>
		<stop  offset="1" style="stop-color:#339966"/>
	</linearGradient>
	<path class="st6" d="M85.5,25.1v9h-4.2V9.9h9.2c2.7,0,4.8,0.7,6.4,2.1c1.6,1.4,2.4,3.3,2.4,5.6c0,2.4-0.8,4.2-2.3,5.5
		c-1.6,1.3-3.7,2-6.5,2H85.5z M85.5,21.7h5c1.5,0,2.6-0.4,3.4-1.1c0.8-0.7,1.2-1.7,1.2-3c0-1.3-0.4-2.3-1.2-3.1s-1.9-1.2-3.3-1.2
		h-5.2V21.7z"/>
	<linearGradient id="SVGID_4_" gradientUnits="userSpaceOnUse" x1="5.5034" y1="21.6655" x2="257.4033" y2="22.4614">
		<stop  offset="0" style="stop-color:#000000"/>
		<stop  offset="3.253728e-002" style="stop-color:#030A07"/>
		<stop  offset="0.1914" style="stop-color:#123524"/>
		<stop  offset="0.3524" style="stop-color:#1E593C"/>
		<stop  offset="0.5136" style="stop-color:#27754E"/>
		<stop  offset="0.6749" style="stop-color:#2E895B"/>
		<stop  offset="0.8368" style="stop-color:#329563"/>
		<stop  offset="1" style="stop-color:#339966"/>
	</linearGradient>
	<path class="st7" d="M119.9,23.3H110v7.4h11.6v3.4h-15.8V9.9h15.7v3.4H110V20h9.9V23.3z"/>
	<linearGradient id="SVGID_5_" gradientUnits="userSpaceOnUse" x1="5.5039" y1="21.6069" x2="257.4038" y2="22.4028">
		<stop  offset="0" style="stop-color:#000000"/>
		<stop  offset="3.253728e-002" style="stop-color:#030A07"/>
		<stop  offset="0.1914" style="stop-color:#123524"/>
		<stop  offset="0.3524" style="stop-color:#1E593C"/>
		<stop  offset="0.5136" style="stop-color:#27754E"/>
		<stop  offset="0.6749" style="stop-color:#2E895B"/>
		<stop  offset="0.8368" style="stop-color:#329563"/>
		<stop  offset="1" style="stop-color:#339966"/>
	</linearGradient>
	<path class="st8" d="M136.6,24.8h-4.7v9.3h-4.2V9.9h8.5c2.8,0,4.9,0.6,6.5,1.9c1.5,1.3,2.3,3.1,2.3,5.4c0,1.6-0.4,3-1.2,4.1
		c-0.8,1.1-1.9,1.9-3.3,2.5l5.4,10.1v0.2h-4.5L136.6,24.8z M131.9,21.4h4.3c1.4,0,2.5-0.4,3.3-1.1s1.2-1.7,1.2-2.9
		c0-1.3-0.4-2.3-1.1-3c-0.7-0.7-1.8-1.1-3.3-1.1h-4.4V21.4z"/>
	<linearGradient id="SVGID_6_" gradientUnits="userSpaceOnUse" x1="5.5039" y1="21.519" x2="257.4038" y2="22.3149">
		<stop  offset="0" style="stop-color:#000000"/>
		<stop  offset="3.253728e-002" style="stop-color:#030A07"/>
		<stop  offset="0.1914" style="stop-color:#123524"/>
		<stop  offset="0.3524" style="stop-color:#1E593C"/>
		<stop  offset="0.5136" style="stop-color:#27754E"/>
		<stop  offset="0.6749" style="stop-color:#2E895B"/>
		<stop  offset="0.8368" style="stop-color:#329563"/>
		<stop  offset="1" style="stop-color:#339966"/>
	</linearGradient>
	<path class="st9" d="M164.3,27.9c0-1.1-0.4-1.9-1.1-2.5c-0.7-0.6-2.1-1.2-4-1.7c-1.9-0.6-3.5-1.2-4.6-2c-2.2-1.4-3.3-3.2-3.3-5.4
		c0-1.9,0.8-3.6,2.4-4.8c1.6-1.3,3.6-1.9,6.2-1.9c1.7,0,3.2,0.3,4.5,0.9c1.3,0.6,2.4,1.5,3.1,2.6c0.8,1.1,1.1,2.4,1.1,3.8h-4.2
		c0-1.3-0.4-2.2-1.2-3c-0.8-0.7-1.9-1.1-3.4-1.1c-1.4,0-2.4,0.3-3.2,0.9c-0.8,0.6-1.1,1.4-1.1,2.5c0,0.9,0.4,1.6,1.2,2.2
		c0.8,0.6,2.2,1.2,4.1,1.7c1.9,0.6,3.4,1.2,4.5,1.9c1.1,0.7,2,1.5,2.5,2.5c0.5,0.9,0.8,2,0.8,3.2c0,2-0.8,3.6-2.3,4.8
		c-1.5,1.2-3.6,1.8-6.3,1.8c-1.7,0-3.4-0.3-4.8-1c-1.5-0.6-2.6-1.5-3.4-2.7c-0.8-1.1-1.2-2.5-1.2-4h4.2c0,1.4,0.5,2.4,1.4,3.2
		c0.9,0.8,2.2,1.1,3.9,1.1c1.5,0,2.6-0.3,3.3-0.9C163.9,29.6,164.3,28.8,164.3,27.9z"/>
	<linearGradient id="SVGID_7_" gradientUnits="userSpaceOnUse" x1="5.5044" y1="21.4414" x2="257.4043" y2="22.2373">
		<stop  offset="0" style="stop-color:#000000"/>
		<stop  offset="3.253728e-002" style="stop-color:#030A07"/>
		<stop  offset="0.1914" style="stop-color:#123524"/>
		<stop  offset="0.3524" style="stop-color:#1E593C"/>
		<stop  offset="0.5136" style="stop-color:#27754E"/>
		<stop  offset="0.6749" style="stop-color:#2E895B"/>
		<stop  offset="0.8368" style="stop-color:#329563"/>
		<stop  offset="1" style="stop-color:#339966"/>
	</linearGradient>
	<path class="st10" d="M194.1,34.1h-4.2V23.4h-10.8v10.7h-4.2V9.9h4.2V20h10.8V9.9h4.2V34.1z"/>
	<linearGradient id="SVGID_8_" gradientUnits="userSpaceOnUse" x1="5.5044" y1="21.3574" x2="257.4043" y2="22.1533">
		<stop  offset="0" style="stop-color:#000000"/>
		<stop  offset="3.253728e-002" style="stop-color:#030A07"/>
		<stop  offset="0.1914" style="stop-color:#123524"/>
		<stop  offset="0.3524" style="stop-color:#1E593C"/>
		<stop  offset="0.5136" style="stop-color:#27754E"/>
		<stop  offset="0.6749" style="stop-color:#2E895B"/>
		<stop  offset="0.8368" style="stop-color:#329563"/>
		<stop  offset="1" style="stop-color:#339966"/>
	</linearGradient>
	<path class="st11" d="M221.1,22.6c0,2.4-0.4,4.4-1.2,6.2c-0.8,1.8-2,3.2-3.5,4.1c-1.5,1-3.3,1.4-5.3,1.4c-2,0-3.7-0.5-5.2-1.4
		c-1.5-1-2.7-2.3-3.6-4.1c-0.8-1.8-1.3-3.8-1.3-6.1v-1.4c0-2.4,0.4-4.4,1.3-6.2c0.8-1.8,2-3.2,3.5-4.1c1.5-1,3.3-1.4,5.2-1.4
		c2,0,3.7,0.5,5.2,1.4c1.5,0.9,2.7,2.3,3.5,4.1s1.3,3.8,1.3,6.2V22.6z M216.9,21.4c0-2.7-0.5-4.7-1.5-6.2s-2.4-2.1-4.3-2.1
		c-1.8,0-3.2,0.7-4.3,2.1c-1,1.4-1.5,3.4-1.6,6v1.4c0,2.7,0.5,4.7,1.6,6.2c1,1.5,2.5,2.2,4.3,2.2c1.9,0,3.3-0.7,4.3-2.1
		c1-1.4,1.5-3.5,1.5-6.2V21.4z"/>
	<linearGradient id="SVGID_9_" gradientUnits="userSpaceOnUse" x1="5.5049" y1="21.2896" x2="257.4048" y2="22.0854">
		<stop  offset="0" style="stop-color:#000000"/>
		<stop  offset="3.253728e-002" style="stop-color:#030A07"/>
		<stop  offset="0.1914" style="stop-color:#123524"/>
		<stop  offset="0.3524" style="stop-color:#1E593C"/>
		<stop  offset="0.5136" style="stop-color:#27754E"/>
		<stop  offset="0.6749" style="stop-color:#2E895B"/>
		<stop  offset="0.8368" style="stop-color:#329563"/>
		<stop  offset="1" style="stop-color:#339966"/>
	</linearGradient>
	<path class="st12" d="M232.2,25.1v9H228V9.9h9.2c2.7,0,4.8,0.7,6.4,2.1c1.6,1.4,2.4,3.3,2.4,5.6c0,2.4-0.8,4.2-2.3,5.5
		c-1.6,1.3-3.7,2-6.5,2H232.2z M232.2,21.7h5c1.5,0,2.6-0.4,3.4-1.1c0.8-0.7,1.2-1.7,1.2-3c0-1.3-0.4-2.3-1.2-3.1s-1.9-1.2-3.3-1.2
		h-5.2V21.7z"/>
</g>
</svg>
